<?xml version="1.0" standalone="no"?><!DOCTYPE svg PUBLIC "-//W3C//DTD SVG 1.1//EN" "http://www.w3.org/Graphics/SVG/1.1/DTD/svg11.dtd"><svg t="1728185456178" class="icon" viewBox="0 0 1024 1024" version="1.1" xmlns="http://www.w3.org/2000/svg" p-id="1494" xmlns:xlink="http://www.w3.org/1999/xlink" width="200" height="200"><path d="M0 512c0 282.76736 229.23264 512 512 512s512-229.23264 512-512S794.76736 0 512 0 0 229.23264 0 512z" fill="#333333" p-id="1495"></path><path d="M754.17088 307.2a64.768 64.768 0 0 1 45.16864 18.13504c12.06784 11.72992 18.7392 27.2384 18.7392 43.7504V691.2c0 16.51712-6.67136 32.02048-18.7392 43.7504-12.1344 11.8016-28.18048 18.27328-45.2352 18.27328H268.64128a64.768 64.768 0 0 1-45.16864-18.13504C211.47648 723.3536 204.8 707.78368 204.8 691.26656V369.15712c0-16.51712 6.67648-32.09216 18.7392-43.75552C235.60704 313.67168 251.65312 307.2 268.6464 307.2h485.52448z m18.00192 108.48768l-137.88672 109.92128 97.90464 81.72544a22.51776 22.51776 0 0 1-14.76096 39.50592 22.92224 22.92224 0 0 1-14.6944-5.46304l-104.02304-86.83008-0.33792-0.3072-22.4512 17.90464c-17.8688 15.50336-40.91904 24.064-64.85504 24.064-23.93088 0-46.91968-8.49408-64.78336-23.93088l-23.1936-17.77664a22.48704 22.48704 0 0 1-1.21344 1.1264l-0.13312 0.13312-104.63232 87.3728a22.784 22.784 0 0 1-14.6944 5.45792 22.30272 22.30272 0 0 1-17.05472-7.81824c-3.91168-4.44928-5.80096-10.3168-5.39648-16.31232a22.49216 22.49216 0 0 1 7.68512-15.44192l0.13824-0.13312 98.74432-82.39616-135.89504-104.14592v268.92288c0 4.31616 1.9456 7.552 3.61984 9.5744l0.80384 0.90624 0.36864 0.37376a18.88768 18.88768 0 0 0 13.2096 5.25824h485.46304a19.0464 19.0464 0 0 0 13.28128-5.25824c1.8176-1.75104 4.7872-5.45792 4.7872-10.8544V415.6928z m-18.00192-62.6432h-485.5296c-5.05344 0-9.77408 1.88416-13.2096 5.25824a15.7184 15.7184 0 0 0-4.40832 7.57248l224.45056 171.9552 0.2048 0.2048c19.8144 17.23904 49.47968 17.5872 69.69344 1.02912l1.62816-1.37216 0.4096-0.26624 8.6016-6.07744 8.45824-6.00576 8.32-5.9392 8.18176-5.87264 12.0064-8.6784 7.8336-5.69856 11.47392-8.4224 11.1616-8.2688 7.25504-5.42208 10.624-8.00256 6.90176-5.248 6.7584-5.1712 9.86624-7.63392 6.4-5.00224 6.2464-4.92544 6.10304-4.85376 8.8832-7.1424 5.7344-4.67456 5.59616-4.59776 5.44256-4.52608 5.29408-4.4544 5.1456-4.37248 4.99712-4.3008 4.84352-4.22912 4.70016-4.15232 4.54656-4.08064 2.21696-2.00704 28.7744-26.4192a17.5872 17.5872 0 0 0-1.63328-2.14016l-0.75776-0.80384a18.88768 18.88768 0 0 0-13.21472-5.25824z" fill="#FFFFFF" p-id="1496"></path></svg>