<?xml version="1.0" standalone="no"?><!DOCTYPE svg PUBLIC "-//W3C//DTD SVG 1.1//EN" "http://www.w3.org/Graphics/SVG/1.1/DTD/svg11.dtd"><svg t="1728186095272" class="icon" viewBox="0 0 1024 1024" version="1.1" xmlns="http://www.w3.org/2000/svg" p-id="31774" xmlns:xlink="http://www.w3.org/1999/xlink" width="200" height="200"><path d="M588.288 998.912v-347.136h114.176l17.408-137.728h-131.584V425.984c0-22.528 4.608-38.912 13.312-50.176 9.216-11.264 26.112-16.896 52.224-16.896h70.656V235.52c-24.064-3.584-58.368-5.632-102.4-5.632-51.712 0-93.184 15.872-124.416 47.616-31.232 31.744-46.592 76.8-46.592 134.656v101.376H336.384v137.728H450.56v349.696C207.36 970.752 18.944 763.392 18.944 512c0-272.384 220.672-493.568 493.568-493.568s493.568 220.672 493.568 493.568c0 246.784-181.248 450.56-417.792 486.912z m-75.264 6.656h-0.512-0.512 1.024z" fill="#131416" p-id="31775"></path></svg>