<?xml version="1.0" standalone="no"?><!DOCTYPE svg PUBLIC "-//W3C//DTD SVG 1.1//EN" "http://www.w3.org/Graphics/SVG/1.1/DTD/svg11.dtd"><svg t="1728186621494" class="icon" viewBox="0 0 1024 1024" version="1.1" xmlns="http://www.w3.org/2000/svg" p-id="60242" xmlns:xlink="http://www.w3.org/1999/xlink" width="200" height="200"><path d="M513.38 512m-400 0a400 400 0 1 0 800 0 400 400 0 1 0-800 0Z" fill="#333333" p-id="60243"></path><path d="M320.87 467.53v225.43c0 12.17 9.86 22.03 22.03 22.03h80.74c14.66 0 26.54-11.88 26.54-26.54v-79.89c0-18.61 15.09-33.7 33.7-33.7h56c18.61 0 33.7 15.09 33.7 33.7v79.89c0 14.66 11.88 26.54 26.54 26.54h80.74c12.17 0 22.03-9.86 22.03-22.03V467.53H320.87z" fill="#FFFFFF" p-id="60244"></path><path d="M460.39 290.24L260.3 452.33c-13.84 11.22-5.91 33.6 11.9 33.6h479.33c17.82 0 25.75-22.39 11.9-33.6L563.34 290.24c-30.01-24.31-72.95-24.31-102.96 0z" fill="#FFFFFF" p-id="60245"></path></svg>