<?xml version="1.0" standalone="no"?><!DOCTYPE svg PUBLIC "-//W3C//DTD SVG 1.1//EN" "http://www.w3.org/Graphics/SVG/1.1/DTD/svg11.dtd"><svg t="1728186449838" class="icon" viewBox="0 0 1024 1024" version="1.1" xmlns="http://www.w3.org/2000/svg" p-id="43543" xmlns:xlink="http://www.w3.org/1999/xlink" width="200" height="200"><path d="M512 1024C229.2 1024 0 794.8 0 512S229.2 0 512 0s512 229.2 512 512-229.2 512-512 512z m143.8-520.2c-23.1-4.6-11.9-17.3-11.9-17.3s22.7-38.1-4.5-66c-33.7-34.4-115.5 4.4-115.5 4.4-31.2 9.9-23-4.5-18.5-29.1 0-29-9.7-77.9-92.9-48.9C329.4 376 258 477.8 258 477.8c-49.7 67.7-43.1 120-43.1 120 12.4 115.4 132.5 147.1 226 154.6 98.3 7.9 230.9-34.5 271.2-121.8 40.2-87.5-32.9-122.1-56.3-126.8z m51-40.2c7.9 0 14.7-5.9 15.8-13.5 0.1-0.6 0.2-1 0.2-1.7 12-108.4-88.6-89.7-88.6-89.7-8.9 0-16.1 7.2-16.1 16.3 0 8.9 7.1 16.1 16.1 16.1 72.3-16 56.3 56.5 56.3 56.5 0 8.8 7.4 16 16.3 16z m-16.3-189.2c-35-8.3-71.1-1.2-81.4 0.9-0.8 0.1-1.5 0.8-2.3 0.9-0.4 0.1-0.6 0.5-0.6 0.5-10 2.8-17.2 12.2-17.2 23.3 0 13.2 10.5 24 23.6 24 0 0 12.8-1.8 21.4-5.2 8.7-3.5 81.3-2.6 117.3 59 19.7 44.9 8.7 74.9 7.2 79.8 0 0-4.7 11.7-4.7 23.2 0 13.2 10.5 21.6 23.6 21.6 10.9 0 20.1-1.5 22.8-20.3h0.2c39-131.2-47.1-192.8-109.9-207.7zM272.2 605c0-65.1 79.4-117.3 177.7-121.8 98.3-4.5 177.9 35.7 177.9 100.7s-79.6 126-177.9 130.5C351.6 719 272.2 670.1 272.2 605z m152.7-72.8c-96.1 11.5-85 103.6-85 103.6s-0.9 29.1 25.8 44c56.3 31.1 114.2 12.3 143.5-26.3 29.1-38.7 12-132.8-84.3-121.3z m-23 124.3c-18.6 2.2-33.6-8.5-33.6-23.9 0-15.4 13.4-31.5 32-33.5 21.4-2 35.3 10.2 35.3 25.7 0 15.3-15.1 29.6-33.7 31.7z" fill="#040404" p-id="43544"></path></svg>