<?xml version="1.0" standalone="no"?><!DOCTYPE svg PUBLIC "-//W3C//DTD SVG 1.1//EN" "http://www.w3.org/Graphics/SVG/1.1/DTD/svg11.dtd"><svg t="1728186208451" class="icon" viewBox="0 0 1024 1024" version="1.1" xmlns="http://www.w3.org/2000/svg" p-id="41264" xmlns:xlink="http://www.w3.org/1999/xlink" width="200" height="200"><path d="M512 34.133333c263.918933 0 477.866667 213.947733 477.866667 477.866667s-213.947733 477.866667-477.866667 477.866667S34.133333 775.918933 34.133333 512 248.081067 34.133333 512 34.133333zM270.045867 550.852267a8.584533 8.584533 0 0 0-4.369067 0.785066c-5.777067 2.688-18.389333 10.615467-22.4768 30.276267V737.450667s1.8688 31.035733 44.663467 45.380266c3.968 1.3312 8.0128 2.645333 12.0832 3.9424l4.906666 1.544534 2.4576 0.768 4.9152 1.501866a1574.024533 1574.024533 0 0 0 70.690134 19.490134s29.141333 5.6576 40.9344-18.141867c4.650667-9.463467 16.273067-25.8816 28.603733-42.24l3.234133-4.266667 3.242667-4.232533c16.6912-21.76 32.708267-41.198933 32.708267-41.198933v-41.250134l-83.2-85.870933-0.8192-0.7424a8.6016 8.6016 0 0 0-3.976534-1.706667L271.163733 550.997333z m388.974933-27.784534H657.066667c-14.677333 0.136533-55.082667 2.858667-95.3856 5.819734l-6.903467 0.512-2.816 0.213333-5.623467 0.426667c-43.861333 3.293867-83.601067 6.528-84.804266 6.613333-14.865067 0.853333-18.688 10.368-19.549867 16.384-0.401067 2.816 0.452267 5.632 2.397867 7.688533l72.192 76.125867c1.774933 1.8944 2.798933 4.360533 2.798933 6.997333v50.679467c0 2.065067-0.622933 4.1216-1.877333 5.7856l-33.732267 45.9776a3.84 3.84 0 0 0 1.664 5.845333c6.852267 2.696533 20.1728 7.739733 30.976 10.5472 15.317333 4.010667 30.122667 4.010667 39.04 3.498667 8.917333-0.4608 101.341867-23.7312 139.861333-31.701333 38.528-7.970133 33.322667-30.498133 33.322667-30.498134L725.589333 613.290667a3.242667 3.242667 0 0 0-3.822933-3.089067l-91.682133 16.622933v53.538134l28.288-5.674667a3.498667 3.498667 0 0 1 4.1216 3.157333l1.024 13.4144a3.362133 3.362133 0 0 1-2.167467 3.498667c-5.6576 2.116267-20.411733 7.389867-35.208533 8.942933-18.807467 2.005333-21.265067-7.918933-21.777067-9.403733-0.4608-1.493333-0.4608-53.546667-0.9728-66.961067-0.512-13.354667 8.3968-22.2976 10.8544-24.763733 1.211733-1.237333 28.288-6.528 55.534933-11.588267l5.632-1.041066c23.406933-4.3264 45.627733-8.251733 50.184534-9.0624l0.853333-0.145067s2.4576-18.577067 0-37.666133c-2.4576-19.319467-51.899733-17.834667-64.247467-19.831467a25.1648 25.1648 0 0 0-3.182933-0.170667z m-372.949333 71.9872l1.092266 0.1024 88.226134 15.872 0.093866 0.059734c1.092267 0.657067 10.88 6.8608 10.88 15.453866v122.282667c0.068267 0.768 0.622933 9.838933-12.4928 9.4464-13.661867-0.341333-69.188267-7.9872-86.698666-23.8592-15.889067-14.353067-7.944533-127.530667-7.944534-127.530667s0.290133-13.124267 7.936-11.7248zM430.336 213.333333c-76.9536 0-139.3664 68.0192-139.3664 151.9104s62.4128 151.918933 139.3664 151.918934a117.76 117.76 0 0 0 12.032-0.64l208.264533-10.734934 1.365334-0.059733 1.3824-0.059733 2.9184-0.170667-0.059734-0.059733 2.517334-0.273067C710.613333 498.858667 750.933333 452.608 750.933333 396.5184c0-60.381867-46.651733-109.3888-104.2176-109.3888-32.8192 0-62.122667 15.931733-81.220266 40.840533C550.1952 262.101333 495.488 213.333333 430.336 213.333333z m26.624 75.0848c38.946133 0 70.536533 36.283733 70.536533 81.083734 0 44.8-31.5904 81.092267-70.536533 81.092266-38.9376 0-70.528-36.283733-70.528-81.092266 0-44.8 31.5904-81.083733 70.528-81.083734z m206.2848 6.126934c25.685333 0 46.532267 34.048 46.532267 76.16 0 42.103467-20.8384 76.16-46.532267 76.16-25.685333 0-46.532267-34.048-46.532267-76.16 0-42.112 20.8384-76.16 46.532267-76.16z" fill="#111111" p-id="41265"></path></svg>