<?xml version="1.0" standalone="no"?><!DOCTYPE svg PUBLIC "-//W3C//DTD SVG 1.1//EN" "http://www.w3.org/Graphics/SVG/1.1/DTD/svg11.dtd"><svg t="1728186121969" class="icon" viewBox="0 0 1024 1024" version="1.1" xmlns="http://www.w3.org/2000/svg" p-id="34461" xmlns:xlink="http://www.w3.org/1999/xlink" width="200" height="200"><path d="M21.056 661.312A512.64 512.64 0 0 0 511.36 1024C794.496 1024 1024 794.752 1024 512s-229.504-512-512.576-512A512.384 512.384 0 0 0 0 477.952l0.192 0.384 275.456 113.216A140.672 140.672 0 0 1 359.68 568.32l125.44-182.016-0.064-2.56a194.944 194.944 0 0 1 194.688-194.752 194.944 194.944 0 0 1 194.688 194.752 195.008 195.008 0 0 1-199.104 194.816L495.872 706.56a142.272 142.272 0 0 1-196.8 135.04 141.888 141.888 0 0 1-83.968-100.352L21.12 661.312z" fill="#000000" p-id="34462"></path><path d="M311.552 811.712a109.76 109.76 0 0 0 84.352-202.56 109.12 109.12 0 0 0-80.832-1.28l65.472 27.136a80.704 80.704 0 1 1-62.08 149.12l-63.36-26.24c11.2 23.424 30.72 43.072 56.448 53.76zM550.016 383.744a129.92 129.92 0 0 0 129.728 129.856 129.92 129.92 0 0 0 129.728-129.856 129.92 129.92 0 0 0-129.728-129.728 129.92 129.92 0 0 0-129.728 129.728z m129.92-97.728a97.536 97.536 0 1 1-0.128 195.072 97.536 97.536 0 0 1 0.128-195.072z" fill="#000000" p-id="34463"></path></svg>