<?xml version="1.0" standalone="no"?><!DOCTYPE svg PUBLIC "-//W3C//DTD SVG 1.1//EN" "http://www.w3.org/Graphics/SVG/1.1/DTD/svg11.dtd"><svg t="1728185916593" class="icon" viewBox="0 0 1024 1024" version="1.1" xmlns="http://www.w3.org/2000/svg" p-id="30805" xmlns:xlink="http://www.w3.org/1999/xlink" width="200" height="200"><path d="M512 114.6c-219.5 0-397.4 177.9-397.4 397.4S292.5 909.4 512 909.4 909.4 731.5 909.4 512 731.5 114.6 512 114.6z m125.9 616c0 8.5-4.3 12.8-12.8 17h-8.5c-4.3 0-8.5 0-12.8-4.3l-102.2-68.1-51.1 51.1c-4.3 4.3-12.8 8.5-21.3 4.3-8.5-4.3-12.8-12.8-12.8-21.3v-93.6c0-4.3 0-8.5 4.3-12.8L625 385.8l-8.5-4.3L391 585.9c-8.5 8.5-17 8.5-25.5 4.3l-102.2-63.8c-4.3 0-8.5-8.5-8.5-17s4.3-17 12.8-17l425.6-212.8c4.3-4.3 12.8-4.3 21.3 0s8.5 12.8 8.5 25.5l-85.1 425.5z" fill="#040000" p-id="30806"></path></svg>